<?xml version="1.0" encoding="utf-8"?>
<!-- Generator: Adobe Illustrator 25.0.0, SVG Export Plug-In . SVG Version: 6.00 Build 0)  -->
<svg version="1.1" id="Layer_1" xmlns="http://www.w3.org/2000/svg" xmlns:xlink="http://www.w3.org/1999/xlink" x="0px" y="0px"
	 viewBox="0 0 1200 1200" style="enable-background:new 0 0 1200 1200;" xml:space="preserve">
<style type="text/css">
	.st0{fill:#2B75DE;}
	.st1{fill:#FDB910;}
	.st2{fill:url(#SVGID_1_);}
	.st3{fill:url(#SVGID_2_);}
</style>
<g>
	<g>
		<path class="st0" d="M738.04,395.37l-87.99,152.4l-71.4,0l87.99-152.39l-204.68,0l35.7-61.83h204.68L738.04,395.37z"/>
		<path class="st1" d="M533.36,573.92l204.68,0.01l-35.7,61.82H497.66l-35.7-61.83l87.99-152.4l71.4,0L533.36,573.92z"/>
		<linearGradient id="SVGID_1_" gradientUnits="userSpaceOnUse" x1="513.8455" y1="604.8371" x2="648.774" y2="604.8371">
			<stop  offset="0" style="stop-color:#B3B3B3"/>
			<stop  offset="0.7356" style="stop-color:#EAEAEA"/>
			<stop  offset="1" style="stop-color:#FFFFFF"/>
		</linearGradient>
		<polygon class="st2" points="497.66,635.75 533.36,573.92 738.04,573.93 702.34,635.75 		"/>
		<linearGradient id="SVGID_2_" gradientUnits="userSpaceOnUse" x1="697.7525" y1="364.4565" x2="547.811" y2="364.4565">
			<stop  offset="0" style="stop-color:#B3B3B3"/>
			<stop  offset="1" style="stop-color:#FFFFFF"/>
		</linearGradient>
		<polygon class="st3" points="461.96,395.37 497.66,333.54 702.34,333.54 666.64,395.37 		"/>
	</g>
	<g>
		<path class="st0" d="M186.98,838.25h57.56v26.68H150v-24.78l57.18-82.34H150v-26.68h94.54v24.78L186.98,838.25z"/>
		<path class="st0" d="M287.99,861.5c-7.75-3.18-13.95-7.88-18.58-14.1c-4.64-6.22-7.09-13.72-7.34-22.49h34.69
			c0.51,4.96,2.22,8.74,5.15,11.34c2.92,2.61,6.73,3.91,11.44,3.91c4.83,0,8.64-1.11,11.44-3.34c2.79-2.22,4.19-5.3,4.19-9.24
			c0-3.3-1.11-6.03-3.34-8.2c-2.22-2.16-4.96-3.94-8.2-5.34c-3.24-1.4-7.85-2.98-13.82-4.77c-8.64-2.67-15.69-5.34-21.16-8.01
			c-5.47-2.67-10.17-6.6-14.1-11.82c-3.94-5.21-5.91-12.01-5.91-20.39c0-12.45,4.51-22.2,13.53-29.26
			c9.02-7.05,20.78-10.58,35.26-10.58c14.74,0,26.62,3.53,35.64,10.58c9.02,7.05,13.85,16.87,14.49,29.45h-35.26
			c-0.26-4.32-1.84-7.72-4.76-10.2c-2.92-2.48-6.67-3.72-11.25-3.72c-3.94,0-7.12,1.05-9.53,3.14c-2.41,2.1-3.62,5.12-3.62,9.05
			c0,4.32,2.03,7.69,6.1,10.1c4.07,2.41,10.42,5.02,19.06,7.81c8.64,2.92,15.66,5.72,21.06,8.39c5.4,2.67,10.07,6.55,14.01,11.63
			c3.94,5.08,5.91,11.63,5.91,19.63c0,7.62-1.94,14.55-5.81,20.78c-3.88,6.23-9.5,11.18-16.87,14.87
			c-7.37,3.69-16.08,5.53-26.11,5.53C304.51,866.27,295.74,864.68,287.99,861.5z"/>
		<path class="st0" d="M403.4,859.79c-8.32-4.45-14.87-10.8-19.63-19.06c-4.76-8.26-7.15-17.92-7.15-28.97
			c0-10.93,2.41-20.55,7.24-28.88c4.83-8.32,11.44-14.71,19.82-19.15c8.39-4.45,17.79-6.67,28.21-6.67
			c10.42,0,19.82,2.22,28.21,6.67c8.39,4.45,14.99,10.83,19.82,19.15c4.83,8.32,7.24,17.95,7.24,28.88
			c0,10.93-2.45,20.56-7.34,28.88c-4.89,8.32-11.56,14.71-20.01,19.16c-8.45,4.45-17.89,6.67-28.3,6.67
			C421.09,866.46,411.72,864.24,403.4,859.79z M447.43,831.39c4.38-4.57,6.58-11.12,6.58-19.63c0-8.51-2.13-15.06-6.38-19.63
			c-4.26-4.57-9.5-6.86-15.72-6.86c-6.36,0-11.63,2.26-15.82,6.77c-4.19,4.51-6.29,11.09-6.29,19.73c0,8.51,2.06,15.06,6.19,19.63
			c4.13,4.57,9.31,6.86,15.53,6.86C437.74,838.25,443.04,835.96,447.43,831.39z"/>
		<path class="st0" d="M537.1,723.89v141.04h-32.59V723.89H537.1z"/>
		<path class="st0" d="M665.76,758.58v106.35h-32.59v-14.49c-3.31,4.7-7.78,8.48-13.44,11.34c-5.66,2.86-11.91,4.29-18.77,4.29
			c-8.13,0-15.31-1.81-21.54-5.43c-6.23-3.62-11.05-8.86-14.49-15.72c-3.43-6.86-5.15-14.93-5.15-24.21v-62.14h32.4v57.75
			c0,7.12,1.84,12.65,5.53,16.58c3.68,3.94,8.64,5.91,14.87,5.91c6.35,0,11.37-1.97,15.06-5.91c3.68-3.94,5.53-9.46,5.53-16.58
			v-57.75H665.76z"/>
		<path class="st0" d="M748.47,837.3v27.64h-16.58c-11.82,0-21.03-2.89-27.64-8.67c-6.61-5.78-9.91-15.22-9.91-28.3v-42.31h-12.96
			v-27.07h12.96v-25.92h32.59v25.92h21.35v27.07h-21.35v42.69c0,3.18,0.76,5.46,2.29,6.86c1.53,1.4,4.07,2.1,7.62,2.1H748.47z"/>
		<path class="st0" d="M768.96,742.48c-3.62-3.37-5.43-7.53-5.43-12.48c0-5.08,1.81-9.31,5.43-12.67c3.62-3.37,8.29-5.05,14.01-5.05
			c5.59,0,10.2,1.69,13.82,5.05c3.62,3.37,5.43,7.59,5.43,12.67c0,4.96-1.81,9.12-5.43,12.48c-3.62,3.37-8.23,5.05-13.82,5.05
			C777.25,747.53,772.58,745.84,768.96,742.48z M799.17,758.58v106.35h-32.59V758.58H799.17z"/>
		<path class="st0" d="M843.1,859.79c-8.32-4.45-14.87-10.8-19.63-19.06c-4.76-8.26-7.15-17.92-7.15-28.97
			c0-10.93,2.41-20.55,7.24-28.88c4.83-8.32,11.44-14.71,19.82-19.15c8.39-4.45,17.79-6.67,28.21-6.67
			c10.42,0,19.82,2.22,28.21,6.67c8.39,4.45,14.99,10.83,19.82,19.15c4.83,8.32,7.24,17.95,7.24,28.88
			c0,10.93-2.45,20.56-7.34,28.88c-4.89,8.32-11.56,14.71-20.01,19.16c-8.45,4.45-17.89,6.67-28.3,6.67
			C860.8,866.46,851.43,864.24,843.1,859.79z M887.13,831.39c4.38-4.57,6.58-11.12,6.58-19.63c0-8.51-2.13-15.06-6.38-19.63
			c-4.26-4.57-9.5-6.86-15.72-6.86c-6.36,0-11.63,2.26-15.82,6.77c-4.19,4.51-6.29,11.09-6.29,19.73c0,8.51,2.06,15.06,6.19,19.63
			c4.13,4.57,9.31,6.86,15.53,6.86C877.44,838.25,882.75,835.96,887.13,831.39z"/>
		<path class="st0" d="M1038.85,769.54c7.43,8.07,11.15,19.15,11.15,33.26v62.14h-32.4v-57.75c0-7.11-1.84-12.64-5.53-16.58
			c-3.69-3.94-8.64-5.91-14.87-5.91c-6.23,0-11.18,1.97-14.87,5.91c-3.69,3.94-5.53,9.47-5.53,16.58v57.75h-32.59V758.58h32.59v14.1
			c3.3-4.7,7.75-8.42,13.34-11.15c5.59-2.73,11.88-4.1,18.87-4.1C1021.47,757.44,1031.42,761.47,1038.85,769.54z"/>
	</g>
</g>
</svg>
